<svg width="200" height="200" viewBox="0 0 200 200" fill="none" xmlns="http://www.w3.org/2000/svg">
<g id="Union">
<mask id="path-1-inside-1_380_9855" fill="white">
<path fill-rule="evenodd" clip-rule="evenodd" d="M104.071 56.1405L0 160.211L39.6972 199.908L143.86 95.7461L143.86 185.965H200V56.1405L200 0.000108345L160.211 0.000110084L160.211 0L160.211 0.000110084L143.86 0.000110799H14.035V56.1405H104.071Z"/>
</mask>
<path d="M0 160.211L-1.41421 158.797L-2.82843 160.211L-1.41421 161.625L0 160.211ZM104.071 56.1405L105.485 57.5547L108.899 54.1405H104.071V56.1405ZM39.6972 199.908L38.283 201.323L39.6972 202.737L41.1115 201.323L39.6972 199.908ZM143.86 95.7461L145.86 95.7461V90.9177L142.445 94.3319L143.86 95.7461ZM143.86 185.965H141.86V187.965H143.86V185.965ZM200 185.965V187.965H202V185.965H200ZM200 56.1405H202H200ZM200 0.000108345L202 0.000107801V-1.99989L200 -1.99989V0.000108345ZM160.211 0.000110084L158.776 1.39283L159.365 2.00011H160.211V0.000110084ZM160.211 0L161.647 -1.39272L160.211 -2.87208L158.776 -1.39272L160.211 0ZM160.211 0.000110084V2.00011H161.057L161.647 1.39283L160.211 0.000110084ZM143.86 0.000110799V2.00011V0.000110799ZM14.035 0.000110799V-1.99989H12.035V0.000110799H14.035ZM14.035 56.1405H12.035V58.1405H14.035V56.1405ZM1.41421 161.625L105.485 57.5547L102.657 54.7263L-1.41421 158.797L1.41421 161.625ZM41.1115 198.494L1.41421 158.797L-1.41421 161.625L38.283 201.323L41.1115 198.494ZM142.445 94.3319L38.283 198.494L41.1115 201.323L145.274 97.1603L142.445 94.3319ZM141.86 95.7461L141.86 185.965H145.86L145.86 95.7461L141.86 95.7461ZM143.86 187.965H200V183.965H143.86V187.965ZM202 185.965V56.1405H198V185.965H202ZM202 56.1405L202 0.000107801L198 0.000108888L198 56.1405H202ZM200 -1.99989L160.211 -1.99989V2.00011L200 2.00011V-1.99989ZM158.776 1.39272L158.776 1.39283L161.647 -1.39261L161.647 -1.39272L158.776 1.39272ZM161.647 1.39283L161.647 1.39272L158.776 -1.39272L158.776 -1.39261L161.647 1.39283ZM160.211 -1.99989L143.86 -1.99989V2.00011L160.211 2.00011V-1.99989ZM143.86 -1.99989H14.035V2.00011H143.86V-1.99989ZM12.035 0.000110799V56.1405H16.035V0.000110799H12.035ZM14.035 58.1405H104.071V54.1405H14.035V58.1405Z" fill="white" mask="url(#path-1-inside-1_380_9855)"/>
</g>
</svg>
