<svg width="1170" height="8" viewBox="0 0 1170 8" fill="none" xmlns="http://www.w3.org/2000/svg">
<path d="M-415 1C-409.765 1 -409.765 7 -404.531 7C-399.296 7 -399.28 1 -394.077 1C-388.874 1 -388.842 7 -383.56 7C-378.279 7 -378.326 1 -373.091 1C-367.856 1 -367.841 7 -362.669 7C-357.497 7 -357.434 1 -352.121 1C-346.807 1 -346.886 7 -341.651 7C-336.417 7 -336.401 1 -331.245 1M-248.37 1C-243.135 1 -243.135 7 -237.901 7C-232.666 7 -232.65 1 -227.447 1C-222.244 1 -222.212 7 -216.93 7C-211.649 7 -211.696 1 -206.461 1C-201.226 1 -201.211 7 -196.039 7C-190.867 7 -190.804 1 -185.491 1C-180.177 1 -180.256 7 -175.021 7C-169.787 7 -169.771 1 -164.615 1M-331.685 1C-326.45 1 -326.45 7 -321.216 7C-315.981 7 -315.965 1 -310.762 1C-305.559 1 -305.527 7 -300.245 7C-294.964 7 -295.011 1 -289.776 1C-284.541 1 -284.526 7 -279.354 7C-274.182 7 -274.119 1 -268.806 1C-263.492 1 -263.571 7 -258.336 7C-253.102 7 -253.086 1 -247.93 1M-165.055 1C-159.82 1 -159.82 7 -154.586 7C-149.351 7 -149.335 1 -144.132 1C-138.929 1 -138.897 7 -133.615 7C-128.334 7 -128.381 1 -123.146 1C-117.911 1 -117.896 7 -112.724 7C-107.552 7 -107.489 1 -102.176 1C-96.862 1 -96.941 7 -91.706 7C-86.472 7 -86.456 1 -81.3 1M-81.74 1C-76.505 1 -76.505 7 -71.271 7C-66.036 7 -66.02 1 -60.817 1C-55.614 1 -55.582 7 -50.3 7C-45.019 7 -45.066 1 -39.831 1C-34.596 1 -34.581 7 -29.409 7C-24.237 7 -24.174 1 -18.861 1C-13.548 1 -13.626 7 -8.39099 7C-3.15699 7 -3.14099 1 2.01501 1M84.89 1C90.125 1 90.125 7 95.359 7C100.594 7 100.61 1 105.813 1C111.016 1 111.048 7 116.33 7C121.611 7 121.564 1 126.799 1C132.034 1 132.049 7 137.221 7C142.393 7 142.456 1 147.769 1C153.082 1 153.004 7 158.239 7C163.473 7 163.489 1 168.645 1M1.57501 1C6.81001 1 6.81001 7 12.044 7C17.279 7 17.295 1 22.498 1C27.701 1 27.733 7 33.015 7C38.296 7 38.249 1 43.484 1C48.719 1 48.734 7 53.906 7C59.078 7 59.141 1 64.454 1C69.767 1 69.689 7 74.924 7C80.158 7 80.174 1 85.33 1M168.205 1C173.44 1 173.44 7 178.674 7C183.909 7 183.925 1 189.128 1C194.331 1 194.363 7 199.645 7C204.926 7 204.879 1 210.114 1C215.349 1 215.364 7 220.536 7C225.708 7 225.771 1 231.084 1C236.397 1 236.319 7 241.554 7C246.788 7 246.804 1 251.96 1M251.52 1C256.755 1 256.755 7 261.989 7C267.224 7 267.24 1 272.443 1C277.646 1 277.678 7 282.96 7C288.241 7 288.194 1 293.429 1C298.664 1 298.679 7 303.851 7C309.023 7 309.086 1 314.399 1C319.712 1 319.634 7 324.869 7C330.103 7 330.119 1 335.275 1M418.15 1C423.385 1 423.385 7 428.619 7C433.854 7 433.87 1 439.073 1C444.276 1 444.308 7 449.59 7C454.871 7 454.824 1 460.059 1C465.294 1 465.309 7 470.481 7C475.653 7 475.716 1 481.029 1C486.342 1 486.264 7 491.499 7C496.733 7 496.749 1 501.905 1M334.835 1C340.07 1 340.07 7 345.304 7C350.539 7 350.555 1 355.758 1C360.961 1 360.993 7 366.275 7C371.556 7 371.509 1 376.744 1C381.979 1 381.994 7 387.166 7C392.338 7 392.401 1 397.714 1C403.027 1 402.949 7 408.184 7C413.418 7 413.434 1 418.59 1M501.465 1C506.7 1 506.7 7 511.934 7C517.169 7 517.185 1 522.388 1C527.591 1 527.623 7 532.905 7C538.186 7 538.139 1 543.374 1C548.609 1 548.624 7 553.796 7C558.968 7 559.031 1 564.344 1C569.657 1 569.579 7 574.814 7C580.048 7 580.064 1 585.22 1M584.78 1C590.01 1 590.01 7 595.25 7C600.48 7 600.5 1 605.7 1C610.91 1 610.94 7 616.22 7C621.5 7 621.45 1 626.69 1C631.92 1 631.94 7 637.11 7C642.28 7 642.35 1 647.66 1C652.97 1 652.89 7 658.13 7C663.36 7 663.38 1 668.54 1M751.41 1C756.64 1 756.64 7 761.88 7C767.11 7 767.13 1 772.33 1C777.54 1 777.57 7 782.85 7C788.13 7 788.08 1 793.32 1C798.55 1 798.57 7 803.74 7C808.91 7 808.98 1 814.29 1C819.6 1 819.52 7 824.76 7C829.99 7 830.01 1 835.17 1M668.09 1C673.33 1 673.33 7 678.56 7C683.8 7 683.81 1 689.02 1C694.22 1 694.25 7 699.53 7C704.82 7 704.77 1 710 1C715.24 1 715.25 7 720.43 7C725.6 7 725.66 1 730.97 1C736.29 1 736.21 7 741.44 7C746.68 7 746.69 1 751.85 1M834.72 1C839.96 1 839.96 7 845.19 7C850.43 7 850.44 1 855.65 1C860.85 1 860.88 7 866.16 7C871.45 7 871.4 1 876.63 1C881.87 1 881.88 7 887.06 7C892.23 7 892.29 1 897.6 1C902.92 1 902.84 7 908.07 7C913.31 7 913.32 1 918.48 1M918.04 1C923.27 1 923.27 7 928.51 7C933.74 7 933.76 1 938.96 1C944.17 1 944.2 7 949.48 7C954.76 7 954.71 1 959.95 1C965.18 1 965.2 7 970.37 7C975.54 7 975.61 1 980.92 1C986.23 1 986.15 7 991.39 7C996.62 7 996.64 1 1001.8 1M1084.67 1C1089.9 1 1089.9 7 1095.14 7C1100.37 7 1100.39 1 1105.59 1C1110.8 1 1110.83 7 1116.11 7C1121.39 7 1121.34 1 1126.58 1C1131.81 1 1131.83 7 1137 7C1142.17 7 1142.24 1 1147.55 1C1152.86 1 1152.78 7 1158.02 7C1163.25 7 1163.27 1 1168.43 1M1001.35 1C1006.59 1 1006.59 7 1011.82 7C1017.06 7 1017.07 1 1022.28 1C1027.48 1 1027.51 7 1032.79 7C1038.08 7 1038.03 1 1043.26 1C1048.5 1 1048.51 7 1053.69 7C1058.86 7 1058.92 1 1064.23 1C1069.55 1 1069.47 7 1074.7 7C1079.94 7 1079.95 1 1085.11 1M1167.98 1C1173.22 1 1173.22 7 1178.45 7C1183.69 7 1183.7 1 1188.91 1C1194.11 1 1194.14 7 1199.42 7C1204.71 7 1204.66 1 1209.89 1C1215.13 1 1215.14 7 1220.32 7C1225.49 7 1225.55 1 1230.86 1C1236.18 1 1236.1 7 1241.33 7C1246.57 7 1246.58 1 1251.74 1M1251.3 1C1256.53 1 1256.53 7 1261.77 7C1267 7 1267.02 1 1272.22 1C1277.43 1 1277.46 7 1282.74 7C1288.02 7 1287.97 1 1293.21 1C1298.44 1 1298.46 7 1303.63 7C1308.8 7 1308.87 1 1314.18 1C1319.49 1 1319.41 7 1324.65 7C1329.88 7 1329.9 1 1335.06 1M1417.93 1C1423.16 1 1423.16 7 1428.4 7C1433.63 7 1433.65 1 1438.85 1C1444.06 1 1444.09 7 1449.37 7C1454.65 7 1454.6 1 1459.84 1C1465.07 1 1465.09 7 1470.26 7C1475.43 7 1475.5 1 1480.81 1C1486.12 1 1486.04 7 1491.28 7C1496.51 7 1496.53 1 1501.68 1M1334.61 1C1339.85 1 1339.85 7 1345.08 7C1350.32 7 1350.33 1 1355.54 1C1360.74 1 1360.77 7 1366.05 7C1371.34 7 1371.29 1 1376.52 1C1381.76 1 1381.77 7 1386.95 7C1392.12 7 1392.18 1 1397.49 1C1402.81 1 1402.73 7 1407.96 7C1413.2 7 1413.21 1 1418.37 1M1501.24 1C1506.48 1 1506.48 7 1511.71 7C1516.95 7 1516.96 1 1522.17 1C1527.37 1 1527.4 7 1532.68 7C1537.97 7 1537.92 1 1543.15 1C1548.39 1 1548.4 7 1553.58 7C1558.75 7 1558.81 1 1564.12 1C1569.44 1 1569.36 7 1574.59 7C1579.83 7 1579.84 1 1585 1" stroke="#F5F5F5" stroke-width="2" stroke-miterlimit="10"/>
</svg>
